<svg width="183" height="28" viewBox="0 0 183 28" fill="none" xmlns="http://www.w3.org/2000/svg">
<g clip-path="url(#clip0_273_1494)">
<path d="M69.3754 13.0675C68.5746 13.9518 67.9739 14.6396 67.3733 15.3274C65.7715 17.1942 64.1698 19.0611 62.568 21.0262C61.7671 21.9105 61.4668 21.9105 60.6659 21.0262C58.6637 18.6681 56.6615 16.3099 54.6594 13.9518C54.4591 13.7553 54.359 13.4605 54.1588 13.1658L53.8585 13.3623C53.8585 13.657 53.7584 14.0501 53.7584 14.3448C53.7584 17.489 53.7584 20.6332 53.7584 23.7773C53.7584 24.9564 53.458 25.2511 52.2567 25.2511C51.6561 25.2511 51.0554 25.2511 50.4548 25.2511C49.1533 25.2511 48.9531 24.9564 48.9531 23.7773C48.9531 20.3384 48.9531 16.8995 48.9531 13.3623C48.9531 9.43208 48.9531 5.50188 48.9531 1.57168C48.9531 1.17866 49.1533 0.883893 49.3536 0.490872C49.6539 0.687383 50.1544 0.883893 50.3547 1.17866C53.7584 5.30537 57.1621 9.33383 60.5658 13.4605C61.4668 14.6396 61.8672 14.6396 62.8683 13.4605C66.1719 9.43208 69.5757 5.40362 72.8793 1.37517C73.0795 1.17866 73.2797 0.883893 73.4799 0.687382C73.9805 0.294362 74.3809 0.490872 74.481 1.0804V1.66993C74.481 9.03906 74.481 16.4082 74.481 23.6791C74.481 25.0546 74.2808 25.2511 72.8793 25.2511C72.2786 25.2511 71.678 25.2511 71.0773 25.2511C69.9761 25.2511 69.6758 24.9564 69.6758 23.8756C69.6758 20.7314 69.6758 17.489 69.6758 14.3448C69.4756 13.9518 69.4756 13.657 69.3754 13.0675Z" fill="black"/>
<path d="M83.9918 12.9694C83.9918 17.5874 87.7959 21.4193 92.3009 21.4193C96.7057 21.4193 100.61 17.3909 100.51 12.8712C100.51 8.35142 96.6056 4.51948 92.1006 4.51948C87.5957 4.51948 83.8917 8.35142 83.9918 12.9694ZM105.315 12.8712C105.315 19.9455 99.3085 25.8408 92.2007 25.7426C84.9929 25.7426 79.1865 19.9455 79.1865 12.7729C79.1865 5.79679 85.1931 -0.0985091 92.3009 -0.000254071C99.4086 0.098001 105.315 5.89505 105.315 12.8712Z" fill="black"/>
<path d="M25.7285 12.9695C25.7285 9.33405 25.7285 5.69862 25.7285 2.06318C25.7285 0.785865 26.0288 0.589355 27.2302 0.589355C32.4358 0.589355 37.5414 0.589355 42.7471 0.589355C44.0485 0.589355 44.3489 0.884121 44.3489 2.16144C44.3489 4.81432 44.3489 4.81432 41.6459 4.81432C38.4424 4.81432 35.2389 4.81432 32.1355 4.81432C30.9342 4.81432 30.6339 5.10909 30.6339 6.28815C30.6339 7.2707 30.6339 8.25325 30.6339 9.33405C30.6339 10.8079 30.8341 11.0044 32.3357 11.0044C35.339 11.0044 38.3423 11.0044 41.3456 11.0044C42.5469 11.0044 42.8472 11.2992 42.8472 12.4782C42.8472 15.3276 42.8472 15.3276 40.0442 15.3276C37.3412 15.3276 34.7384 15.3276 32.0354 15.3276C30.9342 15.3276 30.6339 15.6224 30.6339 16.7032C30.6339 17.6857 30.6339 18.6683 30.6339 19.6508C30.6339 20.8299 30.9342 21.1247 32.1355 21.1247C35.5392 21.1247 39.0431 21.1247 42.4468 21.1247C42.7471 21.1247 43.0474 21.1247 43.3478 21.1247C43.9484 21.1247 44.3489 21.5177 44.3489 22.1072C44.3489 22.795 44.3489 23.581 44.3489 24.2688C44.3489 24.9566 43.9484 25.3496 43.2477 25.3496C37.8418 25.3496 32.3357 25.3496 26.9298 25.3496C26.0288 25.3496 25.8286 24.7601 25.8286 23.9741C25.7285 20.2404 25.7285 16.6049 25.7285 12.9695Z" fill="black"/>
<path d="M130.143 12.8712C130.143 9.2358 130.143 5.60036 130.143 2.06318C130.143 0.785865 130.443 0.589355 131.644 0.589355C136.85 0.589355 142.056 0.589355 147.261 0.589355C148.463 0.589355 148.763 0.88412 148.763 2.06318C148.763 4.81432 148.863 4.81432 146.06 4.71607C142.856 4.71607 139.653 4.71607 136.55 4.71607C135.348 4.71607 135.048 5.01083 135.048 6.18989C135.048 7.2707 135.048 8.3515 135.048 9.43231C135.048 10.6114 135.348 10.9061 136.55 10.9061C139.553 10.9061 142.656 10.9061 145.66 10.9061C146.961 10.9061 147.261 11.2009 147.361 12.4782C147.361 15.2294 147.361 15.2294 144.558 15.2294C141.855 15.2294 139.253 15.2294 136.55 15.2294C135.348 15.2294 135.148 15.5241 135.148 16.6049C135.148 17.6857 135.148 18.6683 135.148 19.7491C135.148 20.8299 135.548 21.1247 136.65 21.1247C139.953 21.1247 143.157 21.1247 146.46 21.1247C148.863 21.1247 148.863 21.1247 148.863 23.4828C148.863 25.2514 148.763 25.3496 146.861 25.3496C141.855 25.3496 136.75 25.3496 131.744 25.3496C130.443 25.3496 130.243 25.0549 130.243 23.8758C130.143 20.1421 130.143 16.5067 130.143 12.8712Z" fill="black"/>
<path d="M119.13 15.1312C119.13 17.9806 119.13 20.83 119.13 23.6794C119.13 24.9567 118.829 25.2515 117.528 25.2515C116.927 25.2515 116.327 25.2515 115.626 25.2515C114.525 25.2515 114.224 24.9567 114.224 23.8759C114.224 21.9108 114.224 19.9457 114.224 17.9806C114.224 14.0504 114.224 10.2185 114.224 6.28826C114.224 4.91269 113.924 4.71618 112.623 4.71618C111.221 4.71618 109.82 4.71618 108.318 4.71618C107.317 4.71618 106.916 4.32316 106.916 3.43886C106.916 0.491211 106.816 0.491211 109.719 0.491211C114.725 0.491211 119.73 0.491211 124.736 0.491211C125.937 0.491211 126.238 0.785976 126.238 1.96504C126.238 2.45631 126.238 2.94759 126.238 3.53712C126.238 4.42141 125.837 4.71618 124.936 4.71618C123.434 4.71618 121.933 4.71618 120.531 4.71618C119.43 4.71618 119.03 5.01094 119.03 6.19C119.13 9.13765 119.13 12.1836 119.13 15.1312Z" fill="black"/>
<path d="M154.168 12.7731C154.168 9.13765 154.168 5.50222 154.168 1.96504C154.168 0.785976 154.469 0.491211 155.67 0.491211C156.271 0.491211 156.972 0.491211 157.572 0.491211C158.673 0.491211 158.974 0.785976 158.974 1.86678C158.974 7.66383 158.974 13.3626 158.974 19.1597C158.974 20.83 159.174 21.0265 160.876 21.0265C164.179 21.0265 167.483 21.0265 170.787 21.0265C171.988 21.0265 172.288 21.3213 172.288 22.5003C172.288 25.2515 172.388 25.2515 169.585 25.1532C164.88 25.1532 160.275 25.1532 155.57 25.1532C154.369 25.1532 154.068 24.8585 154.068 23.6794C154.168 20.1422 154.168 16.5068 154.168 12.7731Z" fill="black"/>
<path d="M176.493 12.8713C176.493 9.23591 176.493 5.69873 176.493 2.06329C176.493 0.785976 176.793 0.491211 178.095 0.491211C178.696 0.491211 179.396 0.491211 179.997 0.491211C180.898 0.491211 181.298 0.884231 181.298 1.76853C181.298 9.13765 181.298 16.605 181.298 23.9742C181.298 24.9567 180.898 25.2515 179.897 25.2515C179.196 25.2515 178.495 25.2515 177.895 25.2515C176.793 25.2515 176.493 24.9567 176.493 23.8759C176.493 20.2405 176.493 16.605 176.493 12.8713Z" fill="black"/>
<path d="M21.1231 25.2515C20.122 25.2515 19.1209 25.2515 18.0197 25.2515C17.6193 25.2515 17.2188 25.2515 16.8184 25.2515C16.7183 25.2515 16.6182 25.2515 16.4179 25.1532C15.4168 24.8585 14.9163 23.9742 14.7161 23.6794C13.5148 22.0091 12.2133 20.437 11.012 18.7666C10.3113 17.7841 9.31018 17.1946 8.00875 17.2928C7.50821 17.2928 7.00766 17.2928 6.407 17.2928C5.3058 17.2928 4.90536 17.6858 4.90536 18.7666C4.90536 20.437 4.90536 22.0091 4.90536 23.6794C4.90536 23.8759 4.90536 24.1707 4.90536 24.3672C4.80525 24.9567 4.40481 25.2515 3.80416 25.2515C2.90317 25.2515 2.1023 25.2515 1.20131 25.2515C0.400438 25.2515 0 24.8585 0 24.0724C0 21.223 0 18.3736 0 15.5242C0 14.3452 1.20131 13.2644 2.40263 13.2644C3.2035 13.2644 4.00438 13.2644 4.80525 13.2644C7.00766 13.2644 9.21007 13.2644 11.5126 13.2644C14.1154 13.2644 15.9174 11.594 15.9174 9.0394C15.9174 8.64638 15.9174 8.25336 15.8173 7.86034C15.4168 5.79698 14.1154 4.71618 11.913 4.71618C9.00985 4.71618 6.10667 4.61792 3.2035 4.71618C1.90208 4.71618 1.00109 4.12665 0.400438 3.1441C-0.100109 2.55457 0 1.76853 0.200219 1.08074C0.300328 0.785976 0.700766 0.491211 1.1012 0.491211C1.50164 0.491211 1.90208 0.491211 2.30252 0.491211C5.50602 0.491211 8.80963 0.491211 12.0131 0.491211H12.4136C13.8151 0.491211 15.0164 0.982486 16.2177 1.57202C18.32 2.65282 19.6214 4.32316 20.2221 6.48477C21.1231 9.82544 20.5224 12.8713 17.8195 15.426C17.419 15.819 16.8184 16.1138 16.3178 16.5068C15.517 17.0963 15.4168 17.3911 16.0175 18.0789C17.5191 20.044 19.1209 22.0091 20.6225 23.9742C20.7226 24.0724 20.8228 24.2689 20.9229 24.4654C21.023 24.6619 21.023 24.7602 21.023 24.9567C21.1231 25.055 21.1231 25.1532 21.1231 25.2515Z" fill="black"/>
</g>
<defs>
<clipPath id="clip0_273_1494">
<rect width="183" height="27.0201" fill="white"/>
</clipPath>
</defs>
</svg>